HIERARCHY
ROOT joint_0
{
	OFFSET 0.000000 0.000000 0.000000
	CHANNELS 6 Xposition Yposition Zposition Zrotation Yrotation Xrotation 
	JOINT joint_1
	{
		OFFSET 7.566162 2.250183 114.799927
		CHANNELS 3 Zrotation Yrotation Xrotation
		JOINT joint_2
		{
			OFFSET -5.201660 -0.414001 104.936035
			CHANNELS 3 Zrotation Yrotation Xrotation
			JOINT joint_3
			{
				OFFSET -6.923584 -0.419739 104.718018
				CHANNELS 3 Zrotation Yrotation Xrotation
				JOINT joint_4
				{
					OFFSET 3.108887 2.881104 149.449951
					CHANNELS 3 Zrotation Yrotation Xrotation
					JOINT joint_5
					{
						OFFSET 19.988770 5.920349 90.786987
						CHANNELS 3 Zrotation Yrotation Xrotation
						End Site
						{
							OFFSET 0.000000 0.000000 0.000000
						}
					}
				}
				JOINT joint_6
				{
					OFFSET 9.283936 -30.015930 84.410034
					CHANNELS 3 Zrotation Yrotation Xrotation
					JOINT joint_7
					{
						OFFSET 47.243164 -155.716736 -23.241089
						CHANNELS 3 Zrotation Yrotation Xrotation
						JOINT joint_8
						{
							OFFSET 31.323730 -15.356873 -268.798950
							CHANNELS 3 Zrotation Yrotation Xrotation
							JOINT joint_9
							{
								OFFSET 28.122314 -2.114624 -262.450012
								CHANNELS 3 Zrotation Yrotation Xrotation
								End Site
								{
									OFFSET 0.000000 0.000000 0.000000
								}
							}
						}
					}
				}
				JOINT joint_10
				{
					OFFSET -5.580566 33.311218 83.498047
					CHANNELS 3 Zrotation Yrotation Xrotation
					JOINT joint_11
					{
						OFFSET -22.773438 160.515381 -27.138062
						CHANNELS 3 Zrotation Yrotation Xrotation
						JOINT joint_12
						{
							OFFSET 27.004395 30.848877 -267.937988
							CHANNELS 3 Zrotation Yrotation Xrotation
							JOINT joint_13
							{
								OFFSET 32.625000 14.824585 -261.518005
								CHANNELS 3 Zrotation Yrotation Xrotation
								End Site
								{
									OFFSET 0.000000 0.000000 0.000000
								}
							}
						}
					}
				}
			}
		}
	}
	JOINT joint_14
	{
		OFFSET 20.623535 -83.447632 -106.174011
		CHANNELS 3 Zrotation Yrotation Xrotation
		JOINT joint_15
		{
			OFFSET 0.661865 -23.563843 -459.915039
			CHANNELS 3 Zrotation Yrotation Xrotation
			JOINT joint_16
			{
				OFFSET -23.461670 -28.727966 -444.760971
				CHANNELS 3 Zrotation Yrotation Xrotation
				JOINT joint_17
				{
					OFFSET 178.992920 54.047363 -80.113001
					CHANNELS 3 Zrotation Yrotation Xrotation
					End Site
					{
						OFFSET 0.000000 0.000000 0.000000
					}
				}
			}
		}
	}
	JOINT joint_18
	{
		OFFSET -19.571533 84.686279 -105.380005
		CHANNELS 3 Zrotation Yrotation Xrotation
		JOINT joint_19
		{
			OFFSET -22.949951 3.639404 -459.933044
			CHANNELS 3 Zrotation Yrotation Xrotation
			JOINT joint_20
			{
				OFFSET -33.690674 4.092651 -445.010971
				CHANNELS 3 Zrotation Yrotation Xrotation
				JOINT joint_21
				{
					OFFSET 187.419678 18.953857 -76.759001
					CHANNELS 3 Zrotation Yrotation Xrotation
					End Site
					{
						OFFSET 0.000000 0.000000 0.000000
					}
				}
			}
		}
	}
}
MOTION
Frames: 7
Frame Time: 0.016667
-2462.029541 925.367249 1110.220947 -4.917456 15.435378 1.207214 -0.977956 4.497011 0.533605 -0.176551 -0.758418 -0.206667 0.103484 0.924735 -0.008035 0.870120 -8.356020 -0.541684 0.000000 0.000000 0.000000 -2.755245 1.864230 -8.404340 -12.069509 2.421878 -7.916419 -178.324053 -68.126316 -133.416969 0.000000 0.000000 0.000000 5.180443 -5.415350 0.292358 18.361146 -3.278950 9.927730 179.185041 -77.400738 135.869515 0.000000 0.000000 0.000000 -0.259531 -5.481607 -3.699248 -1.777557 16.990623 -3.628078 -1.542106 -2.313259 0.159696 0.000000 0.000000 0.000000 2.569611 -23.843197 16.571516 0.573442 45.828886 -7.692200 -0.349326 -3.013482 0.028928 0.000000 0.000000 0.000000 
-2444.676758 928.070251 1113.041992 -5.989267 15.766224 1.219078 -0.593912 4.526162 0.269789 -0.099897 -0.752932 -0.173930 0.090618 0.906302 -0.042818 0.821801 -8.451627 -0.337862 0.000000 0.000000 0.000000 -2.473884 1.945863 -8.456058 -11.729879 2.466750 -8.138170 -178.203655 -69.384967 -133.398888 0.000000 0.000000 0.000000 5.076515 -5.041695 0.356324 18.407472 -2.833122 10.368098 179.372115 -78.197806 136.081747 0.000000 0.000000 0.000000 -0.414975 -4.921491 -4.313011 -1.647043 16.149155 -3.212495 -1.417904 -0.363047 -0.393866 0.000000 0.000000 0.000000 2.505576 -24.982325 16.240029 0.826778 42.501865 -6.767296 -0.592695 -3.968965 0.049857 0.000000 0.000000 0.000000 
-2426.875000 930.293518 1113.980957 -6.910560 16.028455 1.191047 -0.193759 4.325736 -0.048548 0.035916 -0.701131 -0.102566 0.142425 0.872376 -0.096922 0.748449 -8.376395 -0.091990 0.000000 0.000000 0.000000 -2.286276 1.834508 -8.308726 -11.677299 2.358069 -8.075170 -178.089522 -69.854999 -133.069235 0.000000 0.000000 0.000000 5.142755 -5.317492 0.361128 18.713083 -2.976663 10.770689 179.597224 -78.606478 135.621627 0.000000 0.000000 0.000000 -0.537494 -4.483196 -4.813450 -1.579229 15.860074 -2.917311 -1.346300 1.216761 -0.851743 0.000000 0.000000 0.000000 2.145458 -25.936715 16.209967 0.828394 38.854114 -6.192476 -1.065027 -5.017255 0.025452 0.000000 0.000000 0.000000 
-2408.766113 932.342590 1113.338989 -7.769222 16.175298 1.097551 0.215283 4.084967 -0.332449 0.230266 -0.666019 -0.040586 0.265475 0.841726 -0.161818 0.658954 -8.202184 0.186665 0.000000 0.000000 0.000000 -2.148459 1.625194 -8.062620 -11.948765 2.154774 -7.927766 -178.030713 -69.491056 -132.332683 0.000000 0.000000 0.000000 5.322400 -5.965361 0.324109 19.192715 -3.457785 11.205083 179.845312 -78.611369 134.795174 0.000000 0.000000 0.000000 -0.617541 -4.128160 -5.185743 -1.545501 16.090322 -2.775739 -1.311521 2.486050 -1.226298 0.000000 0.000000 0.000000 1.558684 -26.609330 16.415158 0.569023 34.789788 -5.803415 -1.701606 -5.857859 -0.080877 0.000000 0.000000 0.000000 
-2390.447021 934.734314 1111.176025 -8.551245 16.080257 0.976879 0.559940 4.051617 -0.492895 0.400725 -0.685464 -0.029560 0.385829 0.827360 -0.206944 0.569696 -8.021894 0.461479 0.000000 0.000000 0.000000 -2.007963 1.383863 -7.849277 -12.547921 1.900884 -7.956467 -178.041468 -68.105995 -131.242405 0.000000 0.000000 0.000000 5.473038 -6.645022 0.341277 19.827157 -3.953914 11.621873 -179.809635 -78.296602 133.857880 0.000000 0.000000 0.000000 -0.563390 -3.829043 -5.492416 -1.455454 17.054804 -2.837104 -1.221488 3.428052 -1.477779 0.000000 0.000000 0.000000 0.850583 -26.971331 16.678125 0.089324 30.997609 -5.512448 -2.411968 -6.467134 -0.254013 0.000000 0.000000 0.000000 
-2372.007812 937.551392 1107.317993 -9.048488 15.771636 0.967031 0.761312 4.167982 -0.641501 0.461133 -0.677999 -0.023575 0.408789 0.820117 -0.208712 0.485358 -7.883565 0.726664 0.000000 0.000000 0.000000 -1.825671 1.092381 -7.726513 -13.773973 1.565875 -8.330309 -178.135427 -64.866068 -129.519651 0.000000 0.000000 0.000000 5.554302 -7.263644 0.464883 20.642869 -4.379115 11.999875 -179.329348 -77.530421 132.933320 0.000000 0.000000 0.000000 -0.374477 -3.559436 -5.764888 -1.298918 18.699120 -3.176335 -1.074544 4.277977 -1.681578 0.000000 0.000000 0.000000 -0.137669 -27.224932 16.892321 -0.775585 27.731587 -5.392041 -3.441575 -7.664579 -0.500473 0.000000 0.000000 0.000000 
-2353.357666 940.709961 1101.939941 -9.372563 15.275075 1.008282 0.893518 4.380144 -0.752967 0.460059 -0.660937 -0.027540 0.376160 0.823049 -0.187463 0.401494 -7.736952 0.990203 0.000000 0.000000 0.000000 -1.638514 0.715521 -7.635503 -15.393160 1.148391 -8.828882 -178.067418 -60.331142 -127.844846 0.000000 0.000000 0.000000 5.604878 -7.930225 0.646249 21.644165 -4.826860 12.355855 -178.725271 -76.429406 131.885316 0.000000 0.000000 0.000000 -0.079663 -3.360176 -6.020108 -1.097986 21.025944 -3.658551 -0.871137 4.954427 -1.813388 0.000000 0.000000 0.000000 -1.298468 -27.309477 17.077586 -1.874724 24.802962 -5.330778 -4.603556 -9.058837 -0.792246 0.000000 0.000000 0.000000 
